<svg width="13" height="13" viewBox="0 0 13 13" fill="none" xmlns="http://www.w3.org/2000/svg">
<path d="M5.19531 1.37341L5.82422 0.771851C5.95182 0.644246 6.10677 0.580444 6.28906 0.580444C6.47135 0.580444 6.6263 0.644246 6.75391 0.771851L12.0586 6.07654C12.1862 6.20414 12.25 6.35909 12.25 6.54138C12.25 6.72367 12.1862 6.87862 12.0586 7.00623L6.75391 12.3109C6.6263 12.4385 6.47135 12.5023 6.28906 12.5023C6.10677 12.5023 5.95182 12.4385 5.82422 12.3109L5.19531 11.7094C5.06771 11.5817 5.00391 11.4268 5.00391 11.2445C5.02214 11.0622 5.09505 10.9073 5.22266 10.7797L8.50391 7.63513H0.65625C0.473958 7.63513 0.31901 7.57133 0.191406 7.44373C0.0638021 7.31612 0 7.16117 0 6.97888V6.10388C0 5.92159 0.0638021 5.76664 0.191406 5.63904C0.31901 5.51143 0.473958 5.44763 0.65625 5.44763H8.50391L5.22266 2.3031C5.09505 2.1755 5.02214 2.02055 5.00391 1.83826C5.00391 1.65597 5.06771 1.50102 5.19531 1.37341Z" fill="#009444"/>
</svg>
