<svg width="16" height="12" viewBox="0 0 16 12" fill="none" xmlns="http://www.w3.org/2000/svg">
<path d="M11.5415 4.37445C11.5415 4.93324 11.4018 5.46239 11.1224 5.96191C10.8515 6.45296 10.4769 6.88263 9.99853 7.25092C9.52017 7.61921 8.95927 7.90919 8.31582 8.12085C7.67237 8.33251 6.98659 8.43834 6.25848 8.43834C5.74203 8.43834 5.24462 8.38331 4.76627 8.27325C4.28792 8.16318 3.84131 8.00655 3.42646 7.80336C3.15553 7.96422 2.82957 8.11027 2.44858 8.2415C2.06759 8.37273 1.64427 8.43834 1.17862 8.43834C1.13629 8.43834 1.09819 8.42776 1.06432 8.40659C1.03046 8.38543 1.00506 8.35368 0.988124 8.31135C0.971191 8.27748 0.966958 8.23938 0.975425 8.19705C0.983891 8.15472 1.00082 8.12085 1.02622 8.09545C1.03469 8.09545 1.14687 7.95999 1.36276 7.68906C1.57866 7.41814 1.77127 7.09218 1.9406 6.71119C1.63581 6.381 1.39875 6.01694 1.22942 5.61902C1.06009 5.2211 0.975425 4.80624 0.975425 4.37445C0.975425 3.81567 1.11512 3.28652 1.39451 2.787C1.66544 2.29594 2.04008 1.86627 2.51843 1.49798C2.99679 1.12969 3.55769 0.839716 4.20114 0.628055C4.84459 0.416394 5.53037 0.310564 6.25848 0.310564C6.98659 0.310564 7.67237 0.416394 8.31582 0.628055C8.95927 0.839716 9.52017 1.12969 9.99853 1.49798C10.4769 1.86627 10.8515 2.29594 11.1224 2.787C11.4018 3.28652 11.5415 3.81567 11.5415 4.37445ZM14.6403 9.9623C14.8096 10.3433 15.0022 10.6692 15.2181 10.9402C15.434 11.2111 15.5462 11.3466 15.5546 11.3466C15.58 11.3804 15.597 11.4164 15.6054 11.4545C15.6139 11.4926 15.6097 11.5286 15.5927 11.5625C15.5758 11.6048 15.5504 11.6365 15.5165 11.6577C15.4827 11.6789 15.4446 11.6895 15.4022 11.6895C14.9366 11.6895 14.5133 11.6238 14.1323 11.4926C13.7513 11.3614 13.4253 11.2153 13.1544 11.0545C12.7395 11.2577 12.295 11.4143 11.8209 11.5244C11.3468 11.6344 10.8473 11.6895 10.3224 11.6895C9.77205 11.6895 9.24713 11.6302 8.74761 11.5117C8.24809 11.3847 7.78667 11.2111 7.36335 10.991C6.94003 10.7708 6.5675 10.5084 6.24578 10.2036C5.91559 9.8988 5.65313 9.56438 5.4584 9.20032C5.5854 9.21725 5.71663 9.22995 5.85209 9.23842C5.98755 9.24689 6.12302 9.25112 6.25848 9.25112C7.09666 9.25112 7.88827 9.12412 8.63331 8.87013C9.36989 8.61614 10.0133 8.2669 10.5637 7.82241C11.114 7.37792 11.55 6.85935 11.8717 6.2667C12.1935 5.67405 12.3543 5.0433 12.3543 4.37445C12.3543 4.28979 12.3522 4.20512 12.348 4.12046C12.3437 4.0358 12.3331 3.95113 12.3162 3.86647C12.7988 4.01886 13.2433 4.21782 13.6497 4.46335C14.0476 4.71734 14.3926 5.00732 14.6847 5.33328C14.9768 5.65923 15.2033 6.01694 15.3641 6.4064C15.525 6.79585 15.6054 7.20224 15.6054 7.62556C15.6054 8.05735 15.5208 8.47221 15.3514 8.87013C15.1821 9.26805 14.945 9.63211 14.6403 9.9623Z" fill="#EEC044"/>
</svg>
