<svg width="24" height="22" viewBox="0 0 24 22" fill="none" xmlns="http://www.w3.org/2000/svg">
<path d="M15.26 19.8627H8.73998C3.82998 19.8627 1.72998 18.0469 1.72998 13.8015V13.6891C1.72998 9.85003 3.47998 7.99969 7.39998 7.67977C7.79998 7.65383 8.17998 7.91322 8.21998 8.26773C8.25998 8.62223 7.95998 8.94215 7.53998 8.97674C4.39998 9.22749 3.22998 10.5072 3.22998 13.6977V13.8101C3.22998 17.3292 4.66998 18.5743 8.73998 18.5743H15.26C19.33 18.5743 20.77 17.3292 20.77 13.8101V13.6977C20.77 10.4899 19.58 9.21019 16.38 8.97674C15.97 8.94215 15.66 8.63088 15.7 8.27637C15.74 7.92187 16.09 7.65383 16.51 7.68841C20.49 7.98239 22.27 9.84139 22.27 13.7064V13.8188C22.27 18.0469 20.17 19.8627 15.26 19.8627Z" fill="white"/>
<path d="M12 14.1387C11.59 14.1387 11.25 13.8447 11.25 13.4902V2.35356C11.25 1.99906 11.59 1.70508 12 1.70508C12.41 1.70508 12.75 1.99906 12.75 2.35356V13.4902C12.75 13.8534 12.41 14.1387 12 14.1387Z" fill="white"/>
<path d="M11.9998 15.1072C11.8098 15.1072 11.6198 15.0466 11.4698 14.9169L8.11984 12.0204C7.82984 11.7696 7.82984 11.3546 8.11984 11.1038C8.40984 10.8531 8.88984 10.8531 9.17984 11.1038L11.9998 13.5421L14.8198 11.1038C15.1098 10.8531 15.5898 10.8531 15.8798 11.1038C16.1698 11.3546 16.1698 11.7696 15.8798 12.0204L12.5298 14.9169C12.3798 15.0466 12.1898 15.1072 11.9998 15.1072Z" fill="white"/>
</svg>
