<svg width="13" height="13" viewBox="0 0 13 13" fill="none" xmlns="http://www.w3.org/2000/svg">
<path d="M13.5 7.90918V12.708H10.7197V8.22656C10.7197 7.65951 10.6097 7.20247 10.3896 6.85547C10.1696 6.50846 9.80566 6.33496 9.29785 6.33496C8.91699 6.33496 8.61019 6.44076 8.37744 6.65234C8.14469 6.86393 7.97754 7.09668 7.87598 7.35059C7.83366 7.44369 7.80615 7.54948 7.79346 7.66797C7.78076 7.78646 7.77441 7.90918 7.77441 8.03613V12.708H4.99414C4.99414 12.708 4.99414 12.3102 4.99414 11.5146C5.0026 10.7106 5.00684 9.80924 5.00684 8.81055C5.00684 7.81185 5.00684 6.86393 5.00684 5.9668C5.00684 5.06966 5.0026 4.52376 4.99414 4.3291H7.77441V5.52246C7.77441 5.52246 7.7723 5.52458 7.76807 5.52881C7.76383 5.53304 7.76172 5.53939 7.76172 5.54785H7.77441V5.52246C7.96061 5.2347 8.24202 4.93213 8.61865 4.61475C8.99528 4.29736 9.55176 4.13867 10.2881 4.13867C10.7451 4.13867 11.1725 4.21061 11.5703 4.35449C11.9596 4.50684 12.2982 4.73958 12.5859 5.05273C12.8737 5.36589 13.098 5.75944 13.2588 6.2334C13.4196 6.70736 13.5 7.26595 13.5 7.90918ZM2.07422 0.291992C1.60026 0.291992 1.2194 0.429524 0.931641 0.70459C0.64388 0.979655 0.5 1.32454 0.5 1.73926C0.5 2.13704 0.639648 2.4777 0.918945 2.76123C1.19824 3.04476 1.57064 3.18652 2.03613 3.18652H2.06152C2.54395 3.18652 2.92692 3.04476 3.21045 2.76123C3.49398 2.4777 3.63574 2.13704 3.63574 1.73926C3.62728 1.32454 3.48551 0.979655 3.21045 0.70459C2.93538 0.429524 2.55664 0.291992 2.07422 0.291992ZM0.665039 12.708H3.45801V4.3291H0.665039V12.708Z" fill="#1F1E17"/>
</svg>
