<svg width="28" height="28" viewBox="0 0 28 28" fill="none" xmlns="http://www.w3.org/2000/svg">
<path d="M11.959 11.7017C11.959 12.3317 12.134 12.4251 12.5307 12.5651L13.1257 12.7751V10.7917H12.7757C12.3323 10.7917 11.959 11.2001 11.959 11.7017Z" fill="#009444"/>
<path d="M14.875 17.2084H15.225C15.68 17.2084 16.0417 16.8001 16.0417 16.2984C16.0417 15.6684 15.8667 15.5751 15.47 15.4351L14.875 15.2251V17.2084Z" fill="#009444"/>
<path d="M22.844 6.39325L20.4523 8.78492C20.2773 8.95992 20.0557 9.04158 19.834 9.04158C19.6123 9.04158 19.3906 8.95992 19.2157 8.78492C18.8773 8.44659 18.8773 7.88658 19.2157 7.54825L21.6073 5.15659C19.554 3.40659 16.9057 2.33325 14.0007 2.33325C7.56065 2.33325 2.33398 7.55992 2.33398 13.9999C2.33398 20.4399 7.56065 25.6666 14.0007 25.6666C20.4407 25.6666 25.6673 20.4399 25.6673 13.9999C25.6673 11.0949 24.594 8.44659 22.844 6.39325ZM16.0423 13.7899C16.789 14.0583 17.7923 14.5949 17.7923 16.3099C17.7923 17.7683 16.6373 18.9699 15.2257 18.9699H14.8757V19.2616C14.8757 19.7399 14.479 20.1366 14.0007 20.1366C13.5223 20.1366 13.1257 19.7399 13.1257 19.2616V18.9699H13.0323C11.4807 18.9699 10.209 17.6633 10.209 16.0533C10.209 15.5633 10.6057 15.1666 11.084 15.1666C11.5623 15.1666 11.959 15.5633 11.959 16.0416C11.959 16.6833 12.4373 17.2083 13.0323 17.2083H13.1257V14.6183L11.959 14.2099C11.2123 13.9416 10.209 13.4049 10.209 11.6899C10.209 10.2316 11.364 9.02992 12.7757 9.02992H13.1257V8.74992C13.1257 8.27158 13.5223 7.87492 14.0007 7.87492C14.479 7.87492 14.8757 8.27158 14.8757 8.74992V9.04158H14.969C16.5207 9.04158 17.7923 10.3483 17.7923 11.9583C17.7923 12.4366 17.3957 12.8333 16.9173 12.8333C16.439 12.8333 16.0423 12.4366 16.0423 11.9583C16.0423 11.3166 15.564 10.7916 14.969 10.7916H14.8757V13.3816L16.0423 13.7899Z" fill="#009444"/>
<path d="M26.4717 1.99492C26.3783 1.78492 26.215 1.60992 25.9933 1.51659C25.8883 1.48159 25.7833 1.45825 25.6667 1.45825H21C20.5217 1.45825 20.125 1.85492 20.125 2.33325C20.125 2.81159 20.5217 3.20825 21 3.20825H23.555L21.6067 5.15659C22.05 5.54159 22.4583 5.94992 22.8433 6.39325L24.7917 4.44492V6.99992C24.7917 7.47825 25.1883 7.87492 25.6667 7.87492C26.145 7.87492 26.5417 7.47825 26.5417 6.99992V2.33325C26.5417 2.21659 26.5183 2.11159 26.4717 1.99492Z" fill="#009444"/>
</svg>
