<svg width="28" height="28" viewBox="0 0 28 28" fill="none" xmlns="http://www.w3.org/2000/svg">
<path d="M14.875 18.5733H15.6333C16.3917 18.5733 17.0217 17.8966 17.0217 17.08C17.0217 16.065 16.66 15.8666 16.065 15.6566L14.8867 15.2483V18.5733H14.875Z" fill="#009444"/>
<path d="M13.9657 2.21657C7.52573 2.23991 2.31073 7.47824 2.33406 13.9182C2.3574 20.3582 7.59573 25.5732 14.0357 25.5499C20.4757 25.5266 25.6907 20.2882 25.6674 13.8482C25.6441 7.40824 20.4057 2.20491 13.9657 2.21657ZM16.6374 13.9999C17.5474 14.3149 18.7724 14.9916 18.7724 17.0799C18.7724 18.8766 17.3607 20.3232 15.6341 20.3232H14.8757V20.9999C14.8757 21.4782 14.4791 21.8749 14.0007 21.8749C13.5224 21.8749 13.1257 21.4782 13.1257 20.9999V20.3232H12.7057C10.7924 20.3232 9.24073 18.7132 9.24073 16.7299C9.24073 16.2516 9.6374 15.8549 10.1157 15.8549C10.5941 15.8549 10.9907 16.2516 10.9907 16.7299C10.9907 17.7449 11.7607 18.5732 12.7057 18.5732H13.1257V14.6299L11.3641 13.9999C10.4541 13.6849 9.22906 13.0082 9.22906 10.9199C9.22906 9.12324 10.6407 7.67657 12.3674 7.67657H13.1257V6.99991C13.1257 6.52157 13.5224 6.12491 14.0007 6.12491C14.4791 6.12491 14.8757 6.52157 14.8757 6.99991V7.67657H15.2957C17.2091 7.67657 18.7607 9.28657 18.7607 11.2699C18.7607 11.7482 18.3641 12.1449 17.8857 12.1449C17.4074 12.1449 17.0107 11.7482 17.0107 11.2699C17.0107 10.2549 16.2407 9.42657 15.2957 9.42657H14.8757V13.3699L16.6374 13.9999Z" fill="#009444"/>
<path d="M10.9902 10.9318C10.9902 11.9468 11.3519 12.1451 11.9469 12.3551L13.1252 12.7634V9.42676H12.3669C11.6086 9.42676 10.9902 10.1034 10.9902 10.9318Z" fill="#009444"/>
</svg>
