<svg width="18" height="18" viewBox="0 0 18 18" fill="none" xmlns="http://www.w3.org/2000/svg">
<path d="M16.4726 0.724609C16.7603 0.569661 17.037 0.591797 17.3027 0.791016C17.5904 0.968099 17.7122 1.22266 17.6679 1.55469L15.2773 15.8984C15.233 16.1419 15.0891 16.3301 14.8456 16.4629C14.6243 16.5957 14.4029 16.6068 14.1816 16.4961L10.0312 14.7695L7.90618 17.3262C7.68482 17.6139 7.39706 17.6914 7.0429 17.5586C6.68873 17.4479 6.51165 17.2044 6.51165 16.8281V14.1387L14.5136 4.41016C14.58 4.29948 14.5689 4.21094 14.4804 4.14453C14.3919 4.05599 14.3033 4.04492 14.2148 4.11133L4.68547 12.5117L1.16594 11.0508C0.856047 10.918 0.690032 10.6855 0.667896 10.3535C0.645761 10.0215 0.778573 9.77799 1.06633 9.62305L16.4726 0.724609Z" fill="white"/>
</svg>
