<svg width="28" height="28" viewBox="0 0 28 28" fill="none" xmlns="http://www.w3.org/2000/svg">
<path d="M18.889 2.33325H9.11232C4.86565 2.33325 2.33398 4.86492 2.33398 9.11159V18.8766C2.33398 23.1349 4.86565 25.6666 9.11232 25.6666H18.8773C23.124 25.6666 25.6556 23.1349 25.6556 18.8883V9.11159C25.6673 4.86492 23.1357 2.33325 18.889 2.33325ZM19.694 13.4516C19.694 13.9066 19.3323 14.2683 18.8773 14.2683C18.4223 14.2683 18.0606 13.9066 18.0606 13.4516V13.2416L14.8873 16.4149C14.7123 16.5899 14.479 16.6716 14.234 16.6483C13.989 16.6249 13.7673 16.4966 13.639 16.2866L12.449 14.5133L9.67232 17.2899C9.50898 17.4533 9.31065 17.5233 9.10065 17.5233C8.89065 17.5233 8.68065 17.4416 8.52898 17.2899C8.21398 16.9749 8.21398 16.4616 8.52898 16.1349L12.0057 12.6583C12.1807 12.4833 12.414 12.4016 12.659 12.4249C12.904 12.4483 13.1257 12.5766 13.254 12.7866L14.444 14.5599L16.9057 12.0983H16.6957C16.2407 12.0983 15.879 11.7366 15.879 11.2816C15.879 10.8266 16.2407 10.4649 16.6957 10.4649H18.8657C18.9706 10.4649 19.0757 10.4883 19.1807 10.5233C19.379 10.6049 19.5423 10.7683 19.624 10.9666C19.6707 11.0716 19.6823 11.1766 19.6823 11.2816V13.4516H19.694Z" fill="#009444"/>
</svg>
