<svg width="15" height="18" viewBox="0 0 15 18" fill="none" xmlns="http://www.w3.org/2000/svg">
<path fill-rule="evenodd" clip-rule="evenodd" d="M3.72476 3.5579C3.48069 3.80198 3.48069 4.19771 3.72477 4.44178C3.96885 4.68586 4.36457 4.68586 4.60865 4.44178L6.87501 2.1754V12.3332C6.87501 12.6784 7.15483 12.9582 7.50001 12.9582C7.84519 12.9582 8.12501 12.6784 8.12501 12.3332V2.17538L10.3914 4.44178C10.6355 4.68586 11.0312 4.68586 11.2753 4.44178C11.5194 4.1977 11.5194 3.80197 11.2753 3.5579L7.94195 0.22456C7.82474 0.10735 7.66577 0.0415031 7.50001 0.0415039C7.33425 0.0415047 7.17528 0.107354 7.05807 0.224564L3.72476 3.5579ZM2.78322 6.89078C2.99911 6.62146 2.9558 6.22811 2.68648 6.01221C2.41715 5.79631 2.0238 5.83962 1.80791 6.10894C0.807302 7.35716 0.208374 8.94275 0.208374 10.6665C0.208374 14.6936 3.47296 17.9582 7.50004 17.9582C11.5271 17.9582 14.7917 14.6936 14.7917 10.6665C14.7917 8.94275 14.1928 7.35716 13.1922 6.10894C12.9763 5.83962 12.5829 5.79631 12.3136 6.01221C12.0443 6.22811 12.001 6.62146 12.2169 6.89078C13.0461 7.92523 13.5417 9.23714 13.5417 10.6665C13.5417 14.0032 10.8368 16.7082 7.50004 16.7082C4.16332 16.7082 1.45837 14.0032 1.45837 10.6665C1.45837 9.23714 1.95397 7.92523 2.78322 6.89078Z" fill="white"/>
</svg>
