<svg width="13" height="14" viewBox="0 0 13 14" fill="none" xmlns="http://www.w3.org/2000/svg">
<path d="M6.295 0.704922C7.16649 0.704922 7.98297 0.869912 8.74447 1.19989C9.50596 1.52987 10.1723 1.98042 10.7434 2.55154C11.3145 3.12266 11.765 3.78896 12.095 4.55046C12.425 5.31195 12.59 6.12844 12.59 6.99992C12.59 7.87141 12.425 8.6879 12.095 9.44939C11.765 10.2109 11.3145 10.8772 10.7434 11.4483C10.1723 12.0194 9.50596 12.47 8.74447 12.8C7.98297 13.1299 7.16649 13.2949 6.295 13.2949C5.42351 13.2949 4.60703 13.1299 3.84553 12.8C3.08404 12.47 2.41774 12.0194 1.84662 11.4483C1.2755 10.8772 0.82495 10.2109 0.49497 9.44939C0.16499 8.6879 0 7.87141 0 6.99992C0 6.12844 0.16499 5.31195 0.49497 4.55046C0.82495 3.78896 1.2755 3.12266 1.84662 2.55154C2.41774 1.98042 3.08404 1.52987 3.84553 1.19989C4.60703 0.869912 5.42351 0.704922 6.295 0.704922ZM6.295 3.1417C5.67735 3.1417 5.15065 3.35957 4.7149 3.79531C4.27916 4.23105 4.06129 4.75775 4.06129 5.37541C4.06129 5.99306 4.27916 6.51976 4.7149 6.9555C5.15065 7.39124 5.67735 7.60912 6.295 7.60912C6.91265 7.60912 7.43935 7.39124 7.8751 6.9555C8.31084 6.51976 8.52871 5.99306 8.52871 5.37541C8.52871 4.75775 8.31084 4.23105 7.8751 3.79531C7.43935 3.35957 6.91265 3.1417 6.295 3.1417ZM6.295 11.8735C6.66728 11.8735 7.02688 11.8312 7.37378 11.7466C7.72914 11.6704 8.06335 11.5562 8.37641 11.4039C8.68947 11.2516 8.98561 11.0697 9.26482 10.8581C9.54403 10.6466 9.79363 10.4097 10.0136 10.1474C9.77671 9.69899 9.43615 9.33305 8.99195 9.0496C8.54775 8.76616 8.05489 8.62444 7.51339 8.62444C7.47954 8.62444 7.44781 8.62655 7.4182 8.63078C7.38859 8.63501 7.36109 8.64136 7.33571 8.64982C7.16649 8.70059 6.99515 8.74289 6.8217 8.77674C6.64825 8.81058 6.47268 8.8275 6.295 8.8275C6.11732 8.8275 5.94175 8.81058 5.7683 8.77674C5.59485 8.74289 5.42351 8.70059 5.25429 8.64982C5.22891 8.64136 5.20141 8.63501 5.1718 8.63078C5.14219 8.62655 5.11046 8.62444 5.07661 8.62444C4.53511 8.62444 4.04225 8.76616 3.59805 9.0496C3.15385 9.33305 2.81329 9.69899 2.57638 10.1474C2.79637 10.4097 3.04597 10.6466 3.32518 10.8581C3.6044 11.0697 3.90053 11.2516 4.21359 11.4039C4.52665 11.5562 4.86086 11.6704 5.21622 11.7466C5.56312 11.8312 5.92272 11.8735 6.295 11.8735Z" fill="#EEC044"/>
</svg>
